<svg width="48" height="48" viewBox="0 0 48 48" fill="none" xmlns="http://www.w3.org/2000/svg">
<path opacity="0.2" d="M24 30H18V24L31.5 10.5L37.5 16.5L24 30Z" fill="black"/>
<path d="M43.05 10.9312L37.05 4.93122C36.7688 4.6507 36.3878 4.49316 35.9906 4.49316C35.5934 4.49316 35.2124 4.6507 34.9312 4.93122L16.9312 22.9312C16.6527 23.217 16.4977 23.6009 16.5 24V30C16.5 30.3978 16.658 30.7793 16.9393 31.0606C17.2206 31.3419 17.6022 31.5 18 31.5H24C24.1948 31.5007 24.3878 31.4629 24.5679 31.3889C24.7481 31.3149 24.9119 31.2061 25.05 31.0687L43.05 13.0687C43.1917 12.9291 43.3043 12.7628 43.3811 12.5793C43.4579 12.3958 43.4975 12.1989 43.4975 12C43.4975 11.8011 43.4579 11.6041 43.3811 11.4206C43.3043 11.2372 43.1917 11.0708 43.05 10.9312ZM23.3812 28.5H19.5V24.6187L31.5 12.6187L35.3812 16.5L23.3812 28.5ZM37.5 14.3812L33.6187 10.5L36 8.11872L39.8812 12L37.5 14.3812Z" fill="black"/>
<path d="M40.5 21C40.1022 21 39.7206 21.158 39.4393 21.4393C39.158 21.7206 39 22.1022 39 22.5V39H9V9H25.5C25.8978 9 26.2794 8.84196 26.5607 8.56066C26.842 8.27936 27 7.89782 27 7.5C27 7.10218 26.842 6.72064 26.5607 6.43934C26.2794 6.15804 25.8978 6 25.5 6H9C8.20435 6 7.44129 6.31607 6.87868 6.87868C6.31607 7.44129 6 8.20435 6 9V39C6 39.7957 6.31607 40.5587 6.87868 41.1213C7.44129 41.6839 8.20435 42 9 42H39C39.7957 42 40.5587 41.6839 41.1213 41.1213C41.6839 40.5587 42 39.7957 42 39V22.5C42 22.1022 41.842 21.7206 41.5607 21.4393C41.2794 21.158 40.8978 21 40.5 21Z" fill="black"/>
</svg>
